HIERARCHY
ROOT SimulationBone
{
	OFFSET 0.000000 0.000000 0.000000
	CHANNELS 6 Xposition Yposition Zposition Zrotation Yrotation Xrotation 
	JOINT Hips
	{
		OFFSET 0.000000 0.000000 0.000000
		CHANNELS 6 Xposition Yposition Zposition Zrotation Yrotation Xrotation 
		JOINT LeftUpLeg
		{
			OFFSET 0.103462 1.857831 10.548496
			CHANNELS 3 Zrotation Yrotation Xrotation
			JOINT LeftLeg
			{
				OFFSET 43.500000 -0.000038 -0.000010
				CHANNELS 3 Zrotation Yrotation Xrotation
				JOINT LeftFoot
				{
					OFFSET 42.372192 0.000011 0.000010
					CHANNELS 3 Zrotation Yrotation Xrotation
					JOINT LeftToe
					{
						OFFSET 17.299999 0.000001 -0.000001
						CHANNELS 3 Zrotation Yrotation Xrotation
						End Site
						{
							OFFSET 0.000000 0.000000 0.000000
						}
					}
				}
			}
		}
		JOINT RightUpLeg
		{
			OFFSET 0.103456 1.857825 -10.548502
			CHANNELS 3 Zrotation Yrotation Xrotation
			JOINT RightLeg
			{
				OFFSET 43.500038 -0.000023 0.000011
				CHANNELS 3 Zrotation Yrotation Xrotation
				JOINT RightFoot
				{
					OFFSET 42.372261 -0.000008 0.000011
					CHANNELS 3 Zrotation Yrotation Xrotation
					JOINT RightToe
					{
						OFFSET 17.299994 -0.000004 0.000002
						CHANNELS 3 Zrotation Yrotation Xrotation
						End Site
						{
							OFFSET 0.000000 0.000000 0.000000
						}
					}
				}
			}
		}
		JOINT Spine
		{
			OFFSET 6.901965 -2.603729 -0.000002
			CHANNELS 3 Zrotation Yrotation Xrotation
			JOINT Spine1
			{
				OFFSET 12.588101 -0.000004 0.000003
				CHANNELS 3 Zrotation Yrotation Xrotation
				JOINT Spine2
				{
					OFFSET 12.343205 0.000006 0.000001
					CHANNELS 3 Zrotation Yrotation Xrotation
					JOINT Neck
					{
						OFFSET 25.832897 -0.000008 -0.000001
						CHANNELS 3 Zrotation Yrotation Xrotation
						JOINT Head
						{
							OFFSET 11.766601 0.000009 -0.000008
							CHANNELS 3 Zrotation Yrotation Xrotation
							End Site
							{
								OFFSET 0.000000 0.000000 0.000000
							}
						}
					}
					JOINT LeftShoulder
					{
						OFFSET 19.745893 -1.480370 6.000097
						CHANNELS 3 Zrotation Yrotation Xrotation
						JOINT LeftArm
						{
							OFFSET 11.284136 -0.000006 -0.000021
							CHANNELS 3 Zrotation Yrotation Xrotation
							JOINT LeftForeArm
							{
								OFFSET 33.000042 0.000005 0.000030
								CHANNELS 3 Zrotation Yrotation Xrotation
								JOINT LeftHand
								{
									OFFSET 25.200008 0.000013 0.000010
									CHANNELS 3 Zrotation Yrotation Xrotation
									End Site
									{
										OFFSET 0.000000 0.000000 0.000000
									}
								}
							}
						}
					}
					JOINT RightShoulder
					{
						OFFSET 19.746088 -1.480379 -6.000076
						CHANNELS 3 Zrotation Yrotation Xrotation
						JOINT RightArm
						{
							OFFSET 11.284133 -0.000016 -0.000013
							CHANNELS 3 Zrotation Yrotation Xrotation
							JOINT RightForeArm
							{
								OFFSET 33.000095 0.000019 0.000001
								CHANNELS 3 Zrotation Yrotation Xrotation
								JOINT RightHand
								{
									OFFSET 25.199785 0.000138 0.000422
									CHANNELS 3 Zrotation Yrotation Xrotation
									End Site
									{
										OFFSET 0.000000 0.000000 0.000000
									}
								}
							}
						}
					}
				}
			}
		}
	}
}
MOTION
Frames: 7
Frame Time: 0.033333
-224.391921 0.000000 -360.408330 0.000000 -86.985787 0.000000 5.051958 89.663269 -1.921227 102.642397 -0.729740 175.012834 -176.044205 -6.843504 177.831625 -56.650453 -2.726202 3.638255 73.596217 -5.286523 -8.756620 21.454550 0.003084 0.000004 175.838712 7.767108 -177.938394 -36.509161 5.564089 0.381246 79.915064 -0.327985 0.363065 21.454555 -0.003110 -0.000018 7.127343 0.121745 0.289952 4.242450 0.232817 0.584106 3.924353 0.236498 0.582715 6.887151 -8.980942 -1.347003 -14.434222 8.372174 -5.279912 -20.701163 -76.228395 -161.662436 -11.807290 -11.556879 -20.514810 -28.775331 -18.897858 1.455365 8.262803 -23.110666 11.418444 -30.020095 72.748399 152.656709 -15.958730 10.468829 27.398995 -27.406310 19.940695 -1.521959 4.455314 21.895952 2.181775 
-223.850169 0.000000 -362.736976 0.000000 -88.366744 0.000000 5.393347 89.773827 -1.227254 103.004162 -0.986260 177.792440 -173.158997 -5.710904 179.342135 -54.897963 -1.890069 6.401273 72.114032 -7.384655 -8.523306 21.454557 0.003089 -0.000004 175.841253 7.312898 -177.799619 -35.275854 5.765825 1.217995 78.888815 -0.858907 0.624389 21.454557 -0.003109 -0.000017 7.063578 0.089754 0.075689 4.114407 0.176738 0.154492 3.796319 0.177802 0.153424 7.906626 -9.522854 -1.146781 -16.326162 8.200458 -5.150264 -17.802671 -74.705010 -164.558218 -12.365650 -12.442811 -21.138049 -30.320292 -19.527470 1.525631 6.509029 -25.564720 11.891592 -31.250195 70.836978 151.554671 -17.281681 11.151821 27.154720 -27.748992 20.183692 -1.543631 3.100140 23.725697 1.146609 
-223.345754 0.000000 -365.236856 0.000000 -89.369998 0.000000 5.658468 89.890160 -0.680588 102.959269 -1.241819 179.969993 -171.062170 -5.144304 -179.663577 -52.324218 -1.589228 8.199819 70.419544 -8.669371 -7.948565 21.454555 0.003092 -0.000003 175.211824 7.037699 -177.294635 -33.988486 5.652972 1.746022 77.568321 -1.177531 0.819650 21.454557 -0.003104 -0.000017 6.989123 0.053747 -0.087510 3.965305 0.110369 -0.173139 3.647200 0.109474 -0.173803 9.344571 -10.865630 -0.806333 -20.809756 8.996496 -5.506925 -15.338670 -73.414780 -167.017892 -12.468217 -12.761898 -20.878466 -30.623420 -20.051658 1.565287 3.708352 -28.404115 13.015126 -31.592306 69.098114 151.314686 -18.119430 11.743686 27.074110 -27.135944 20.095938 -1.526924 2.741846 24.284010 0.729936 
-222.872778 0.000000 -367.897737 180.000000 -89.937795 180.000000 5.836819 89.987984 -0.291742 102.539616 -1.583782 -178.756085 -169.729887 -4.692511 -179.662006 -49.127293 -1.731795 8.756758 69.492428 -8.969392 -7.429851 21.454548 0.003088 0.000001 174.130741 7.044804 -176.638527 -32.354483 5.250088 1.898140 76.347889 -1.248702 0.911570 21.454557 -0.003105 -0.000017 6.918719 -0.035709 -0.134407 3.824654 -0.067057 -0.269917 3.506563 -0.068558 -0.269489 9.364944 -11.855376 -0.197220 -23.570788 9.505947 -5.445975 -14.632849 -72.493866 -167.737944 -12.468860 -13.131902 -20.469420 -29.053945 -19.666225 1.509637 -0.293433 -29.534640 17.377663 -32.616325 67.665509 150.390479 -18.992562 12.433112 27.517406 -25.929968 19.682329 -1.479675 3.118013 24.010475 0.768618 
-222.425342 0.000000 -370.709384 180.000000 -89.510087 180.000000 5.885253 89.980583 -0.132657 102.024900 -1.923746 -178.458545 -168.859748 -4.111801 179.808446 -45.329524 -2.450823 8.337515 69.416777 -8.598185 -7.301716 21.454548 0.003082 0.000002 172.570262 7.251404 -176.949656 -30.772939 5.063666 2.113031 74.994698 -1.367525 0.994628 21.454557 -0.003105 -0.000020 6.892458 -0.163235 -0.050413 3.772226 -0.324815 -0.106060 3.454122 -0.325308 -0.104095 8.561070 -11.703945 0.380447 -24.454118 9.312574 -4.914987 -14.920477 -71.846575 -167.481197 -12.400229 -13.253685 -19.451539 -27.011761 -19.248190 1.445492 -0.617439 -28.100110 21.873867 -33.248493 66.833613 149.816825 -19.512099 12.919534 28.298988 -25.007471 19.578438 -1.457783 3.870742 22.637777 0.582434 
-221.997549 0.000000 -373.661564 180.000000 -89.308226 180.000000 5.777787 89.937286 -0.140110 101.382878 -2.355203 -178.290301 -169.014575 -3.040490 179.443468 -41.906732 -2.796433 7.145933 71.688422 -7.545159 -7.386575 21.454553 0.003094 -0.000003 170.786736 7.694701 -176.756184 -29.027365 4.588097 2.079922 73.141436 -1.291421 1.097483 21.454558 -0.003104 -0.000016 6.895440 -0.294779 0.013463 3.778027 -0.589889 0.017431 3.459903 -0.589630 0.020992 8.069999 -11.007568 0.824745 -24.584593 8.845895 -4.230662 -16.485785 -71.981444 -165.947997 -12.372377 -13.242610 -19.689045 -25.926560 -18.688591 1.391353 1.384935 -25.579134 22.315683 -33.533101 66.403400 149.563685 -19.638592 12.910430 29.574173 -25.054616 19.728366 -1.468011 4.829973 21.184382 0.680683 
-221.583500 0.000000 -376.744045 180.000000 -89.305446 180.000000 5.365719 89.661903 -0.299255 100.659055 -2.679567 -178.099093 -170.210636 -1.869284 179.937113 -39.742217 -3.001191 6.252882 74.758442 -6.259429 -6.167835 21.454565 0.003091 0.000000 168.552130 8.281691 -176.476884 -27.469201 4.224326 1.990261 70.965618 -1.158647 1.234800 21.454560 -0.003107 -0.000016 6.986586 -0.402165 0.110382 3.959698 -0.807869 0.207126 3.641565 -0.806464 0.211995 8.131649 -9.767603 1.037401 -24.850919 8.026177 -3.525513 -17.321717 -72.699973 -165.104687 -12.088143 -12.999701 -20.248466 -25.439914 -18.470223 1.369479 2.965419 -26.040808 20.731482 -34.690705 66.147910 148.451511 -19.388315 12.743641 30.723236 -25.635771 19.944798 -1.491318 5.986499 20.782652 1.750725 
